<svg xmlns="http://www.w3.org/2000/svg" id="Capa_1" height="512" viewBox="0 0 512 512" width="512"><g id="XMLID_1630_"><g id="XMLID_520_"><g id="XMLID_521_"><path id="XMLID_524_" d="m300 354c0-38.598-31.402-70-70-70s-70 31.402-70 70 31.402 70 70 70 70-31.402 70-70zm-120 0c0-27.57 22.43-50 50-50s50 22.43 50 50-22.43 50-50 50-50-22.43-50-50z"></path><path id="XMLID_523_" d="m240 354c0 5.523 4.477 10 10 10 5.522 0 10-4.477 10-10 0-16.542-13.458-30-30-30-5.523 0-10 4.477-10 10s4.477 10 10 10c5.514 0 10 4.486 10 10z"></path><path id="XMLID_692_" d="m454.875 0h-397.75c-31.499 0-57.125 25.626-57.125 57.125s25.626 57.125 57.125 57.125c19.092 0 34.625 15.533 34.625 34.625v2.575c-.351-.018-.697-.053-1.052-.053h-29.98c-11.607 0-21.051 9.444-21.051 21.052v24.631c-22.628 4.774-39.667 24.892-39.667 48.92v216c0 27.57 22.43 50 50 50h360c27.57 0 50-22.43 50-50v-216c0-11.247-3.735-21.637-10.027-30h4.902c31.499 0 57.125-25.626 57.125-57.125v-101.75c0-31.499-25.626-57.125-57.125-57.125zm-395.208 172.449c0-.58.472-1.052 1.051-1.052h29.98c.58 0 1.052.472 1.052 1.052v23.551h-32.083zm350.333 319.551h-360c-16.542 0-30-13.458-30-30v-191.873h132.877c-22.656 20.849-36.877 50.73-36.877 83.873 0 13.206 2.241 26.153 6.661 38.482 1.863 5.2 7.588 7.901 12.788 6.039 5.198-1.864 7.902-7.589 6.038-12.788-3.64-10.158-5.487-20.834-5.487-31.733 0-51.832 42.168-94 94-94s94 42.168 94 94-42.168 94-94 94c-11.226 0-22.202-1.956-32.624-5.812-5.179-1.915-10.932.728-12.85 5.908-1.916 5.18.729 10.932 5.908 12.849 12.652 4.681 25.963 7.055 39.566 7.055 51.37 0 94.906-34.157 109.108-80.949h31.174c18.225 0 33.051-14.827 33.051-33.051s-14.826-33.051-33.051-33.051h-31.174c-5.986-19.724-17.184-37.201-31.985-50.822h132.877v191.873c0 16.542-13.458 30-30 30zm-66.751-151.051h27.034c7.196 0 13.051 5.855 13.051 13.051s-5.855 13.051-13.051 13.051h-27.034c.49-4.284.751-8.637.751-13.051s-.261-8.767-.751-13.051zm96.751-94.949v4.127h-163.041c-14.327-6.503-30.228-10.127-46.959-10.127s-32.632 3.624-46.959 10.127h-163.041v-4.127c0-16.542 13.458-30 30-30h360c16.542 0 30 13.458 30 30zm-283.979-50 13.742-36h120.475l13.741 36zm335.979-37.125c0 20.471-16.654 37.125-37.125 37.125h-129.488l-18.92-49.566c-1.479-3.874-5.195-6.434-9.343-6.434h-134.248c-4.148 0-7.863 2.56-9.343 6.434l-18.92 49.566h-22.863v-47.125c0-30.121-24.505-54.625-54.625-54.625-20.471 0-37.125-16.654-37.125-37.125s16.654-37.125 37.125-37.125h397.75c20.471 0 37.125 16.654 37.125 37.125z"></path><path id="XMLID_698_" d="m156.09 417.17c-2.63 0-5.21 1.06-7.07 2.92-1.859 1.86-2.93 4.44-2.93 7.07 0 2.64 1.07 5.21 2.93 7.07 1.86 1.87 4.441 2.93 7.07 2.93 2.64 0 5.21-1.06 7.07-2.93 1.859-1.86 2.93-4.43 2.93-7.07 0-2.63-1.07-5.21-2.93-7.07s-4.44-2.92-7.07-2.92z"></path></g></g></g></svg>