<svg xmlns="http://www.w3.org/2000/svg" viewBox="0 0 64 64" width="512" height="512"><g id="outline"><path d="M61,34H58a7.006,7.006,0,0,0-6.518,4.466,6.417,6.417,0,0,0-5-2.447,41.017,41.017,0,0,0-4.252-6.47c-.833-1.108-1.621-2.154-2.291-3.176-1.33-2.034-.675-9.8.05-14.211a1,1,0,0,0-.225-.809.987.987,0,0,0-.648-.328l.88-7.915A1,1,0,0,0,39,2H29a1,1,0,0,0-.994,1.11l.88,7.915a.967.967,0,0,0-.871,1.144c.045.265.09.544.135.831H28a9,9,0,0,0-2.84,17.537C22.629,33.868,20,37.619,20,42a19.73,19.73,0,0,0,.227,3.005c-.073,0-.154-.005-.227-.005-3.7,0-6.183.693-7.58,2.121a4.637,4.637,0,0,0-1.088,1.8L6.707,44.293a1,1,0,0,0-1.262-.125l-3,2a1,1,0,0,0-.152,1.539L4.586,50H3a1,1,0,0,0-1,1v4a1,1,0,0,0,1,1H4.586L2.293,58.293a1,1,0,0,0,.152,1.539l3,2a1,1,0,0,0,1.262-.125l4.625-4.625a4.637,4.637,0,0,0,1.088,1.8C13.817,60.307,16.3,61,20,61c6.833,0,18.15-2.418,22.759-5.189A10,10,0,1,0,57.37,43.578,7.005,7.005,0,0,0,62,37V35A1,1,0,0,0,61,34ZM4.57,47.155l1.3-.868L9.586,50H7.414Zm1.3,12.558-1.3-.868L7.414,56H9.586ZM10.985,54H4V52h6.985C10.987,52.1,10.987,53.9,10.985,54Zm39.92-11.937a9.9,9.9,0,0,0-2.934.792c.012-.285.029-.566.029-.855a12.29,12.29,0,0,0-.652-3.854A4.557,4.557,0,0,1,50.905,42.063ZM32,4V7h2V4h3.883L37.1,11H35V9H33v2H30.9l-.778-7Zm5.836,9a64.06,64.06,0,0,0-.663,8H30.9a64.539,64.539,0,0,0-.724-8ZM28.659,25H28a3,3,0,0,1,0-6h.809A26.352,26.352,0,0,1,28.659,25ZM21,22a6.989,6.989,0,0,1,7-7h.43c.08.648.155,1.32.22,2H28a4.992,4.992,0,0,0-.206,9.98q-.621.9-1.334,1.844A7.025,7.025,0,0,1,21,22ZM32,57.437V54H30v3.863A54.574,54.574,0,0,1,20,59V56H18v2.913c-2-.183-3.395-.661-4.151-1.434A3.605,3.605,0,0,1,13,55V51a3.605,3.605,0,0,1,.849-2.479A5.614,5.614,0,0,1,17,47.209V52h2V47.022c.322-.013.652-.022,1-.022a45.986,45.986,0,0,1,6,.456V52h2V47.759c5.722.953,11.521,2.663,14,4.316a9.983,9.983,0,0,0,.169,1.74C40.377,55.088,36.417,56.433,32,57.437Zm10.23-7.551c-4.392-2.379-13.445-4.386-19.94-4.8A17.127,17.127,0,0,1,22,42c0-4.044,2.711-7.588,5.333-11.015.908-1.186,1.765-2.306,2.5-3.438A9.779,9.779,0,0,0,30.867,23h6.351a9.76,9.76,0,0,0,1.046,4.468c.706,1.078,1.512,2.149,2.366,3.283C43.27,34.259,46,37.885,46,42a18.177,18.177,0,0,1-.129,2.116A10,10,0,0,0,42.23,49.886ZM60,52a8,8,0,1,1-8-8A8.009,8.009,0,0,1,60,52Zm0-15a5.006,5.006,0,0,1-5,5h-.149l2.774-2.219-1.25-1.562-3.366,2.694A5,5,0,0,1,58,36h2Z"></path><path d="M52,56v2a6.006,6.006,0,0,0,6-6H56A4,4,0,0,1,52,56Z"></path><rect x="23" y="54" width="2" height="2"></rect><rect x="33" y="51" width="2" height="2"></rect><rect x="54" y="47" width="2" height="2"></rect><rect x="51" y="51" width="2" height="2"></rect><path d="M24,43l2,0a13,13,0,0,1,3.707-8.3l-1.414-1.414A14.8,14.8,0,0,0,24,43Z"></path></g></svg>