<svg xmlns="http://www.w3.org/2000/svg" id="Layer_5" height="512" viewBox="0 0 64 64" width="512"><g><path d="m49 12h-8v6h8zm-2 4h-4v-2h4z"></path><path d="m63 42-4.18-21h-3.82v-6.171l2.253 1.609c.512.368 1.116.562 1.746.562.967 0 1.88-.47 2.442-1.257.466-.652.65-1.447.518-2.238-.133-.792-.565-1.483-1.216-1.945l-14.001-10.002c-1.024-.73-2.464-.73-3.485.002l-13.998 9.998c-.653.464-1.085 1.156-1.218 1.947-.132.791.051 1.586.519 2.24.928 1.296 2.887 1.622 4.184.695l2.256-1.612v6.172h-9.611l-1.393-1.238c-1.101-.982-2.892-.98-3.989-.002l-17.999 15.998c-.6.532-.956 1.266-1.003 2.066-.046.801.221 1.571.752 2.168.569.642 1.387 1.01 2.243 1.01.735 0 1.443-.27 1.994-.76l1.006-.894v23.652h54v-14h2zm-5.82-19 3.82 19.099v.901h-24v-3.652l1.006.894c1.19 1.059 3.179.94 4.236-.248.532-.599.799-1.369.752-2.17s-.403-1.534-1.001-2.064l-4.229-3.76h17.236v-9zm-10.18 7h-4v-8h4zm-15.419-15.187c-.434.309-1.087.198-1.395-.231-.156-.218-.217-.483-.173-.747.045-.268.185-.491.406-.649l14-9.999c.342-.244.821-.242 1.161-.001l14.001 10.003c.216.153.36.383.404.646.044.264-.017.528-.172.745-.309.434-.959.546-1.397.232l-13.416-9.583zm13.419-7.127 8 5.715v16.599h-4v-10h-8v10h-4v-16.6zm-10 15.314v6.543l-7.361-6.543zm-30.335 15.748c-.399.355-1.058.314-1.413-.084-.177-.198-.266-.455-.25-.723.016-.267.134-.511.334-.688l18-16c.184-.163.419-.253.664-.253s.481.09.666.255l18 16c.199.177.317.42.332.687.016.271-.071.521-.251.725-.352.396-1.014.436-1.412.082l-17.335-15.41zm17.335-12.733 13 11.555v3.43h-8v-8h-10v8h-8v-3.43zm3 14.985h-6v-6h6zm-16 2h26v18h-12v-12h-12v12h-2zm12 18h-8v-10h8zm38 0h-22v-12h22zm-22-14v-2h24v2z"></path><path d="m33 45h-8v8h8zm-2 6h-4v-4h4z"></path><path d="m47 59v-8h-8v8zm-6-6h4v4h-4z"></path><path d="m57 51h-8v8h8zm-2 6h-4v-4h4z"></path></g></svg>