<svg xmlns="http://www.w3.org/2000/svg" id="Capa_1" height="512" viewBox="0 0 512.409 512.409" width="512"><g id="XMLID_2793_"><g id="XMLID_2639_"><g id="XMLID_2640_"><path id="XMLID_2706_" d="m502 492.204h-492c-5.523 0-10 4.478-10 10s4.477 10 10 10h492c5.522 0 10-4.478 10-10s-4.478-10-10-10z"></path><path id="XMLID_2705_" d="m10 472.204h24c5.522 0 10-4.478 10-10s-4.478-10-10-10h-24c-5.523 0-10 4.478-10 10s4.477 10 10 10z"></path><path id="XMLID_2671_" d="m280.666 452.204c-5.522 0-10 4.478-10 10s4.478 10 10 10h49.334c5.522 0 10-4.478 10-10s-4.478-10-10-10z"></path><path id="XMLID_2670_" d="m231.333 452.204h-49.333c-5.523 0-10 4.478-10 10s4.477 10 10 10h49.333c5.523 0 10-4.478 10-10s-4.478-10-10-10z"></path><path id="XMLID_2669_" d="m379.333 452.204c-5.523 0-10 4.478-10 10s4.477 10 10 10h49.333c5.522 0 10-4.478 10-10s-4.478-10-10-10z"></path><path id="XMLID_2668_" d="m83.333 452.204c-5.522 0-10 4.478-10 10s4.478 10 10 10h49.333c5.522 0 10-4.478 10-10s-4.478-10-10-10z"></path><path id="XMLID_2667_" d="m502 452.204h-24c-5.523 0-10 4.478-10 10s4.477 10 10 10h24c5.522 0 10-4.478 10-10s-4.478-10-10-10z"></path><path id="XMLID_2663_" d="m10 95.975h212.827c5.463 0 9.903-4.381 9.998-9.821.005-.142.008-.282.008-.424 0-47.159-38.366-85.525-85.524-85.525-26.527 0-51.024 12.033-67.178 32.601-7.062-2.985-14.673-4.536-22.426-4.536-31.818-.001-57.705 25.885-57.705 57.705 0 5.522 4.477 10 10 10zm47.705-47.706c7.171 0 14.155 2.031 20.197 5.875 2.249 1.43 4.975 1.904 7.572 1.316 2.599-.588 4.855-2.188 6.27-4.446 12.083-19.292 32.854-30.81 55.564-30.81 32.815 0 60.075 24.25 64.8 55.771h-190.762c4.392-15.954 19.029-27.706 36.359-27.706z"></path><path id="XMLID_2658_" d="m183.663 156.841c-1.835-2.888-5.02-4.637-8.44-4.637-3.421 0-6.605 1.749-8.441 4.637l-165.223 260c-1.956 3.079-2.081 6.98-.324 10.178s5.116 5.185 8.765 5.185l116.053.002h.007c6.879 0 13.492-1.967 19.122-5.687 22.752-15.027 36.335-40.259 36.335-67.494 0-13.649-3.206-26.475-9.53-38.116-.033-.062-.067-.123-.103-.185-5.126-8.982-7.726-18.969-7.726-29.684 0-2.489.15-4.959.447-7.4 5.22 17.748 16.123 33.64 31.287 44.849 21.559 15.911 34.43 41.382 34.43 68.135v.238c-.026 9.502 3.633 18.418 10.302 25.105 6.583 6.601 15.343 10.236 24.665 10.236h237.119c3.648 0 7.008-1.987 8.765-5.185 1.757-3.197 1.633-7.099-.324-10.178l-63.976-100.675c-2.963-4.66-9.141-6.039-13.804-3.077-4.661 2.963-6.039 9.143-3.077 13.804l54.213 85.311h-110.205v-31.361l8.433 8.433c1.953 1.952 4.512 2.929 7.071 2.929 2.56 0 5.118-.977 7.071-2.929 3.905-3.905 3.905-10.237 0-14.143l-22.575-22.574v-18.778l5.023 5.023c1.953 1.952 4.512 2.929 7.071 2.929 2.56 0 5.118-.977 7.071-2.929 3.905-3.905 3.905-10.237 0-14.143l-22.095-22.095c-3.906-3.904-10.236-3.904-14.143 0l-22.095 22.095c-3.905 3.905-3.905 10.237 0 14.143 3.906 3.904 10.236 3.904 14.143 0l5.025-5.023v18.777l-22.575 22.575c-3.905 3.905-3.905 10.237 0 14.143 3.906 3.904 10.236 3.904 14.143 0l8.433-8.433v31.361h-88.711c-3.97 0-7.7-1.548-10.503-4.359-2.89-2.897-4.476-6.778-4.464-10.955v-.266c0-33.075-15.908-64.562-42.548-84.222-16.679-12.33-26.636-32.054-26.636-52.761 0-4.897.54-9.774 1.605-14.497.995-4.412-1.096-8.944-5.1-11.051-4.004-2.104-8.923-1.262-11.995 2.059-13.858 14.978-21.491 34.471-21.491 54.889 0 14.196 3.465 27.484 10.299 39.498 4.751 8.777 7.06 18.097 7.06 28.486 0 20.499-10.227 39.491-27.358 50.806-2.352 1.554-5.151 2.375-8.1 2.375-.001 0-.003 0-.004 0l-97.852-.002 147.02-231.355 65.687 103.368c2.964 4.661 9.142 6.04 13.804 3.077 4.661-2.963 6.039-9.143 3.077-13.804l-32.95-51.851 69.133-108.791 87.75 138.087c1.906 2.998 5.143 4.638 8.45 4.638 1.834 0 3.69-.504 5.353-1.561 4.661-2.963 6.039-9.143 3.077-13.804l-15.897-25.016h72.548c5.458 0 9.896-4.374 9.998-9.808.004-.125.007-.288.007-.388 0-38.683-31.47-70.152-70.152-70.152-19.12 0-37.028 7.682-50.088 21.043l-42.607-67.047c-1.835-2.888-5.02-4.637-8.44-4.637s-6.605 1.749-8.44 4.637l-72.541 114.153zm211.445-1.995c24.301 0 44.619 17.37 49.19 40.348h-74.301l-13.828-21.76c9.487-11.72 23.67-18.588 38.939-18.588z"></path><path id="XMLID_2657_" d="m407.229 276.474c-1.87 1.87-2.93 4.44-2.93 7.08 0 2.63 1.06 5.21 2.93 7.07 1.86 1.86 4.44 2.93 7.07 2.93s5.21-1.069 7.07-2.93c1.859-1.86 2.93-4.44 2.93-7.07 0-2.64-1.07-5.21-2.93-7.08-1.86-1.859-4.44-2.92-7.07-2.92-2.639 0-5.209 1.06-7.07 2.92z"></path></g></g></g></svg>