<svg xmlns="http://www.w3.org/2000/svg" id="Capa_1" height="512" viewBox="0 0 508 508" width="512"><g><path d="m263.926 498c0 5.52-4.479 10-9.99 10h-.01c-5.51 0-10-4.49-10-10 .01-5.521 4.49-10 10-10 5.521 0 10 4.49 10 10zm230.056-293.554c-22.731 25.792-49.228 47.717-78.52 65.548 14.75 51.135-1.444 99.486-37.402 130.006-14.874 12.624-32.269 21.374-50.986 25.762 2.745 2.038 6.034 3.407 9.653 3.818l56.939 6.479c8.103.928 12.456 11.335 5.45 17.47-26.008 22.772-59.488 41.093-98.4 49.511-12.935 2.798-17.164-16.751-4.229-19.55 25.326-5.479 49.05-15.671 70.51-30.33l-32.53-3.71c-20.229-2.311-35.479-19.391-35.479-39.74v-41.531c-26.877 18.211-62.368 18.725-90 0v41.531c0 20.35-15.26 37.43-35.47 39.74l-32.54 3.71c21.43 14.64 45.121 24.838 70.41 30.31 12.919 2.795 8.689 22.345-4.23 19.55-35.333-7.645-69.508-24.279-98.3-49.49-6.645-5.818-3.103-16.49 5.45-17.47l56.94-6.479c4.72-.537 8.882-2.694 11.995-5.862-19.401-5.734-37.019-16.191-51.521-30.692-27.121-27.121-39.565-65.39-34.623-102.6-28.74-12.781-55.58-29.438-79.875-49.6-16.212-13.454-14.748-43.297 9.555-51.514l97.209-32.857v-26.456c0-71.683 58.318-130 130-130 71.683 0 130 58.317 130 130v10.897l92.081 13.915c25.039 4.123 32.692 32.865 17.913 49.634zm-349.995-74.446v18.953c23.386-9.492 64.737-25.67 115.374-28.278 46.038-2.384 83.498 9.209 104.602 15.733v-8.276c-1.002-59.796-49.947-108.132-109.976-108.132-60.655 0-110 49.346-110 110zm-87.223 70.289c85.948 57.873 202.196 51.058 280.301-17.695 11.027-9.707 22.244-17.605 35.428-23.207-40.01-11.211-69.617-20.927-112.103-18.739-49.148 2.532-89.237 20.112-111.413 27.866-26.814 9.376-92.213 31.775-92.213 31.775zm52.838 47.435c-26.227-8.319-51.075-20.913-73.331-37.435-2.941-2.182-5.506-.932-7.149.519-4.264 4.192-3.202 11.246.874 14.629 21.829 18.119 45.839 33.234 71.502 45.037.564-1.816 8.104-22.75 8.104-22.75zm79.385 102.863c-26.58-27.153-45.835-60.22-56.25-96.715-1.263-.272-2.523-.554-3.782-.846l-6.851 18.849c-13.463 37.106-4.138 79.111 23.759 107.008 12.139 12.139 26.887 20.888 43.124 25.677zm144-50.177c0-29.604-1.548-57.926-6.615-84.266-38.335 26.134-87.127 43.382-140.747 43.382-10.321 0-20.606-.647-30.793-1.908 11.517 34.239 31.748 64.823 59.099 89.139 22.834 20.289 57.276 20.291 80.114-.002 15.18-13.492 28.266-29.077 38.942-46.345zm64.486-20.385-26.924-98.094c-7.314 4.03-16.046 11.456-26.362 20.844 5.839 28.84 8.8 58.328 8.8 87.752v49.473c0 5.522-4.478 10-10 10s-10-4.478-10-10v-5.134c-4.42 5.444-9.095 10.678-14 15.701v56.486c16.976-3.353 32.769-10.95 46.126-22.295 30.067-25.541 42.769-66.651 32.36-104.733zm75.606-105.438-30.183-4.561c-18.191-2.647-36.849-2.027-53.845 3.748l20.901 76.108c25.648-16.239 49.067-35.979 69.08-58.721 4.912-5.58 2.569-15.193-5.953-16.574z"></path></g></svg>