<svg xmlns="http://www.w3.org/2000/svg" xmlns:xlink="http://www.w3.org/1999/xlink" id="Layer_1" x="0px" y="0px" viewBox="0 0 1920 1000" xml:space="preserve">
<title></title>
<g id="Layer_2">
	<path fill="#4A7973" d="M1147.5,281.3c-12.3,12.2-12.3,31.9-0.2,44.2c0.1,0.1,0.1,0.1,0.2,0.2l143.8,143.8H555.6   c-17.3,0-31.3,14-31.3,31.3s14,31.3,31.3,31.3h735l-143.1,142.8c-12.1,12.2-12.1,31.9,0,44.1c12.2,12.1,31.9,12.1,44.1,0   L1390.3,520c11-10.5,11.3-27.9,0.8-38.9c-0.3-0.3-0.5-0.5-0.8-0.8l-198.4-199.1c-12.2-12.3-31.9-12.3-44.2-0.2   C1147.6,281.1,1147.6,281.2,1147.5,281.3z"></path>
</g>
</svg>