<svg width="38" height="29" viewBox="0 0 38 29" fill="none" xmlns="http://www.w3.org/2000/svg">
<path d="M18.32 14.44C20.0267 14.7867 21.3867 15.6 22.4 16.88C23.44 18.1333 23.96 19.6133 23.96 21.32C23.96 23.6933 23.16 25.5733 21.56 26.96C19.9867 28.32 17.6933 29 14.68 29H2.56V0.759999H14.44C17.2933 0.759999 19.48 1.38667 21 2.64C22.5467 3.89333 23.32 5.65333 23.32 7.92C23.32 9.68 22.8533 11.12 21.92 12.24C21.0133 13.36 19.8133 14.0933 18.32 14.44ZM8.2 12.6H13.28C14.6933 12.6 15.76 12.2933 16.48 11.68C17.2267 11.04 17.6 10.1333 17.6 8.96C17.6 7.78667 17.24 6.88 16.52 6.24C15.8 5.6 14.6933 5.28 13.2 5.28H8.2V12.6ZM13.56 24.4C15.0533 24.4 16.2 24.08 17 23.44C17.8 22.7733 18.2 21.8133 18.2 20.56C18.2 19.3067 17.7867 18.3467 16.96 17.68C16.16 16.9867 15.0133 16.64 13.52 16.64H8.2V24.4H13.56Z" fill="#121212"/>
<circle cx="34" cy="5" r="4" fill="#4A7973"/>
</svg>
